<svg xmlns="http://www.w3.org/2000/svg" width="62" height="34" x="0" y="0" enable-background="new 0 0 595.275 311.111" version="1.1" viewBox="0 0 62.001 34" xml:space="preserve"><path fill="#fff" d="m31.001 2.9997a13.5 13.5 0 0 0 -13.409 12.006 7.5001 7.5001 0 0 0 -0.09082 -0.0058 7.5001 7.5001 0 0 0 -7.5001 7.5001 7.5001 7.5001 0 0 0 7.5001 7.5001h13.5 12a9.0002 9.0002 0 0 0 9 -9 9.0002 9.0002 0 0 0 -8.277 -8.965 13.5 13.5 0 0 0 -12.723 -9.0353zm0 4.5001a9.0002 9.0002 0 0 1 9.0002 9.0002 9.0002 9.0002 0 0 1 -9.0002 9.0002 9.0002 9.0002 0 0 1 -9.0002 -9.0002 9.0002 9.0002 0 0 1 9.0002 -9.0002z"/></svg>